<mxfile host="Electron" agent="Mozilla/5.0 (X11; Linux x86_64) AppleWebKit/537.36 (KHTML, like Gecko) draw.io/26.0.9 Chrome/128.0.6613.186 Electron/32.3.0 Safari/537.36" version="26.0.9">
  <diagram id="wIuLBTgzell4qDcYkJ7C" name="Page-1">
    <mxGraphModel dx="1434" dy="296" grid="1" gridSize="10" guides="1" tooltips="1" connect="1" arrows="1" fold="1" page="1" pageScale="1" pageWidth="413" pageHeight="583" math="0" shadow="0">
      <root>
        <mxCell id="0" />
        <mxCell id="1" parent="0" />
        <mxCell id="bRj4Hj0bhYHjiNpq5yqv-3" style="rounded=0;orthogonalLoop=1;jettySize=auto;html=1;endArrow=none;endFill=0;" parent="1" source="bRj4Hj0bhYHjiNpq5yqv-24" target="bRj4Hj0bhYHjiNpq5yqv-2" edge="1">
          <mxGeometry relative="1" as="geometry" />
        </mxCell>
        <mxCell id="bRj4Hj0bhYHjiNpq5yqv-2" value="Pas de description" style="rounded=0;whiteSpace=wrap;html=1;fillColor=none;strokeColor=default;" parent="1" vertex="1">
          <mxGeometry x="240" y="940" width="120" height="40" as="geometry" />
        </mxCell>
        <mxCell id="bRj4Hj0bhYHjiNpq5yqv-13" value="Points principaux" style="rounded=0;whiteSpace=wrap;html=1;fillColor=none;strokeColor=default;" parent="1" vertex="1">
          <mxGeometry x="240" y="690" width="120" height="40" as="geometry" />
        </mxCell>
        <mxCell id="bRj4Hj0bhYHjiNpq5yqv-24" value="Décoration" style="ellipse;whiteSpace=wrap;html=1;" parent="1" vertex="1">
          <mxGeometry x="120" y="940" width="80" height="40" as="geometry" />
        </mxCell>
        <mxCell id="bRj4Hj0bhYHjiNpq5yqv-31" style="rounded=0;orthogonalLoop=1;jettySize=auto;html=1;endArrow=none;endFill=0;" parent="1" source="bRj4Hj0bhYHjiNpq5yqv-27" target="bRj4Hj0bhYHjiNpq5yqv-28" edge="1">
          <mxGeometry relative="1" as="geometry" />
        </mxCell>
        <mxCell id="bRj4Hj0bhYHjiNpq5yqv-32" style="rounded=0;orthogonalLoop=1;jettySize=auto;html=1;endArrow=none;endFill=0;" parent="1" source="bRj4Hj0bhYHjiNpq5yqv-27" target="bRj4Hj0bhYHjiNpq5yqv-29" edge="1">
          <mxGeometry relative="1" as="geometry" />
        </mxCell>
        <mxCell id="bRj4Hj0bhYHjiNpq5yqv-27" value="Présentation" style="ellipse;whiteSpace=wrap;html=1;" parent="1" vertex="1">
          <mxGeometry x="120" y="840" width="80" height="40" as="geometry" />
        </mxCell>
        <mxCell id="bRj4Hj0bhYHjiNpq5yqv-28" value="Données spécifiques" style="rounded=0;whiteSpace=wrap;html=1;fillColor=none;strokeColor=default;" parent="1" vertex="1">
          <mxGeometry x="240" y="840" width="120" height="40" as="geometry" />
        </mxCell>
        <mxCell id="bRj4Hj0bhYHjiNpq5yqv-29" value="Design" style="rounded=0;whiteSpace=wrap;html=1;fillColor=none;strokeColor=default;" parent="1" vertex="1">
          <mxGeometry x="240" y="890" width="120" height="40" as="geometry" />
        </mxCell>
        <mxCell id="bRj4Hj0bhYHjiNpq5yqv-30" value="Titre" style="rounded=0;whiteSpace=wrap;html=1;fillColor=none;strokeColor=default;" parent="1" vertex="1">
          <mxGeometry x="240" y="790" width="120" height="40" as="geometry" />
        </mxCell>
        <mxCell id="bRj4Hj0bhYHjiNpq5yqv-35" style="rounded=0;orthogonalLoop=1;jettySize=auto;html=1;endArrow=none;endFill=0;" parent="1" source="bRj4Hj0bhYHjiNpq5yqv-34" target="bRj4Hj0bhYHjiNpq5yqv-29" edge="1">
          <mxGeometry relative="1" as="geometry" />
        </mxCell>
        <mxCell id="bRj4Hj0bhYHjiNpq5yqv-34" value="Portfolio" style="ellipse;whiteSpace=wrap;html=1;" parent="1" vertex="1">
          <mxGeometry x="120" y="890" width="80" height="40" as="geometry" />
        </mxCell>
        <mxCell id="bRj4Hj0bhYHjiNpq5yqv-37" style="rounded=0;orthogonalLoop=1;jettySize=auto;html=1;endArrow=none;endFill=0;" parent="1" source="bRj4Hj0bhYHjiNpq5yqv-36" target="bRj4Hj0bhYHjiNpq5yqv-30" edge="1">
          <mxGeometry relative="1" as="geometry">
            <Array as="points">
              <mxPoint x="200" y="680" />
              <mxPoint x="380" y="680" />
              <mxPoint x="380" y="810" />
            </Array>
          </mxGeometry>
        </mxCell>
        <mxCell id="bRj4Hj0bhYHjiNpq5yqv-38" style="rounded=0;orthogonalLoop=1;jettySize=auto;html=1;endArrow=none;endFill=0;" parent="1" source="bRj4Hj0bhYHjiNpq5yqv-36" target="bRj4Hj0bhYHjiNpq5yqv-13" edge="1">
          <mxGeometry relative="1" as="geometry" />
        </mxCell>
        <mxCell id="bRj4Hj0bhYHjiNpq5yqv-36" value="Rapport" style="ellipse;whiteSpace=wrap;html=1;" parent="1" vertex="1">
          <mxGeometry x="120" y="690" width="80" height="40" as="geometry" />
        </mxCell>
        <mxCell id="bRj4Hj0bhYHjiNpq5yqv-40" style="rounded=0;orthogonalLoop=1;jettySize=auto;html=1;endArrow=none;endFill=0;" parent="1" source="bRj4Hj0bhYHjiNpq5yqv-39" target="bRj4Hj0bhYHjiNpq5yqv-30" edge="1">
          <mxGeometry relative="1" as="geometry" />
        </mxCell>
        <mxCell id="bRj4Hj0bhYHjiNpq5yqv-42" style="rounded=0;orthogonalLoop=1;jettySize=auto;html=1;endArrow=none;endFill=0;" parent="1" source="bRj4Hj0bhYHjiNpq5yqv-39" target="bRj4Hj0bhYHjiNpq5yqv-41" edge="1">
          <mxGeometry relative="1" as="geometry" />
        </mxCell>
        <mxCell id="bRj4Hj0bhYHjiNpq5yqv-39" value="Travails en cours" style="ellipse;whiteSpace=wrap;html=1;" parent="1" vertex="1">
          <mxGeometry x="120" y="790" width="80" height="40" as="geometry" />
        </mxCell>
        <mxCell id="bRj4Hj0bhYHjiNpq5yqv-41" value="Type de graphique" style="rounded=0;whiteSpace=wrap;html=1;fillColor=none;strokeColor=default;" parent="1" vertex="1">
          <mxGeometry x="240" y="740" width="120" height="40" as="geometry" />
        </mxCell>
        <mxCell id="bRj4Hj0bhYHjiNpq5yqv-45" style="rounded=0;orthogonalLoop=1;jettySize=auto;html=1;endArrow=none;endFill=0;" parent="1" source="bRj4Hj0bhYHjiNpq5yqv-44" target="bRj4Hj0bhYHjiNpq5yqv-41" edge="1">
          <mxGeometry relative="1" as="geometry" />
        </mxCell>
        <mxCell id="bRj4Hj0bhYHjiNpq5yqv-44" value="Liste de Sélection" style="ellipse;whiteSpace=wrap;html=1;" parent="1" vertex="1">
          <mxGeometry x="120" y="740" width="80" height="40" as="geometry" />
        </mxCell>
        <mxCell id="bRj4Hj0bhYHjiNpq5yqv-33" style="rounded=0;orthogonalLoop=1;jettySize=auto;html=1;endArrow=none;endFill=0;jumpStyle=arc;" parent="1" source="bRj4Hj0bhYHjiNpq5yqv-27" target="bRj4Hj0bhYHjiNpq5yqv-30" edge="1">
          <mxGeometry relative="1" as="geometry" />
        </mxCell>
        <mxCell id="bRj4Hj0bhYHjiNpq5yqv-46" value="Médium" style="text;html=1;strokeColor=none;fillColor=none;align=center;verticalAlign=middle;whiteSpace=wrap;rounded=0;fontStyle=1;fontSize=13;" parent="1" vertex="1">
          <mxGeometry x="130" y="640" width="60" height="30" as="geometry" />
        </mxCell>
        <mxCell id="bRj4Hj0bhYHjiNpq5yqv-47" value="Contenu type" style="text;html=1;strokeColor=none;fillColor=none;align=center;verticalAlign=middle;whiteSpace=wrap;rounded=0;fontStyle=1;fontSize=13;" parent="1" vertex="1">
          <mxGeometry x="240" y="640" width="120" height="30" as="geometry" />
        </mxCell>
      </root>
    </mxGraphModel>
  </diagram>
</mxfile>
